<?xml version="1.0" standalone="no"?><!DOCTYPE svg PUBLIC "-//W3C//DTD SVG 1.1//EN" "http://www.w3.org/Graphics/SVG/1.1/DTD/svg11.dtd"><svg t="1776999246298" class="icon" viewBox="0 0 1024 1024" version="1.1" xmlns="http://www.w3.org/2000/svg" p-id="1472" xmlns:xlink="http://www.w3.org/1999/xlink" width="200" height="200"><path d="M514.2 960.9c-1.7 0-3.4-0.2-5.1-0.5-69.2-12.3-133-39.5-189.6-80.9-45-32.9-85.4-74.6-120.2-124.1-58.9-83.8-81.2-160.6-82.1-163.9-0.7-2.6-1.1-5.3-1.1-8v-409c0-11.6 6.8-22.1 17.4-26.8C233.8 103.2 335.9 75.9 437 66.6c81.2-7.4 161.8-3.4 239.8 12.1 133.5 26.5 212.6 77.2 215.9 79.3 8.3 5.4 13.4 14.6 13.4 24.6l0.4 402.4c0 2.6-0.3 5.2-1 7.7-18.5 67.5-50.3 128.9-94.5 182.5-35.2 42.6-78.3 80.4-128 112.1-84.4 53.9-158.9 72-162 72.8-2.3 0.5-4.6 0.8-6.8 0.8zM174.6 579.1c5 15.4 26.9 78.1 73.7 144.2C317.4 821 406.5 880.9 513 901.6c17.9-5.1 76.4-23.7 140.1-64.7 99.4-64 164.9-150 194.7-255.8l-0.4-381.5c-26.6-14.4-91.7-45.7-184.8-63.8-110.3-21.5-283.3-28.3-487.9 58v385.3z" fill="#dd4321" p-id="1473"></path><path d="M676.7 661.4H340V428.7h102.7v46.1h-23.4v0.7h-32.6v139.2h243.2V475.5h-24.8v-0.7h-23.4v-46.1h95z" fill="#dd4321" p-id="1474"></path><path d="M628.1 475.1H396.3V403c0-63.9 52-115.9 115.9-115.9s115.9 52 115.9 115.9v72.1z m-185.8-46H582V403c0-38.5-31.3-69.9-69.9-69.9s-69.9 31.3-69.9 69.9v26.1z" fill="#dd4321" p-id="1475"></path><path d="M605.1 475.5H419.3v-0.7h-23.4v-46.1h232.5v46.1h-23.3z" fill="#dd4321" p-id="1476"></path></svg>